<svg xmlns="http://www.w3.org/2000/svg" width="1420" height="1470" viewBox="0 0 1420 1470" role="img" aria-label="Identity isolation lab — detailed architecture"><title>Identity isolation lab — detailed architecture</title><rect width="1420" height="1470" fill="#FFFFFF"/><defs><marker id="arrow-232F3E" viewBox="0 0 10 10" refX="9" refY="5" markerWidth="7" markerHeight="7" orient="auto-start-reverse"><path d="M0 0 L10 5 L0 10 z" fill="#232F3E"/></marker><marker id="arrow-start-232F3E" viewBox="0 0 10 10" refX="9" refY="5" markerWidth="7" markerHeight="7" orient="auto-start-reverse"><path d="M0 0 L10 5 L0 10 z" fill="#232F3E"/></marker><marker id="arrow-8C4FFF" viewBox="0 0 10 10" refX="9" refY="5" markerWidth="7" markerHeight="7" orient="auto-start-reverse"><path d="M0 0 L10 5 L0 10 z" fill="#8C4FFF"/></marker><marker id="arrow-start-8C4FFF" viewBox="0 0 10 10" refX="9" refY="5" markerWidth="7" markerHeight="7" orient="auto-start-reverse"><path d="M0 0 L10 5 L0 10 z" fill="#8C4FFF"/></marker><marker id="arrow-E7157B" viewBox="0 0 10 10" refX="9" refY="5" markerWidth="7" markerHeight="7" orient="auto-start-reverse"><path d="M0 0 L10 5 L0 10 z" fill="#E7157B"/></marker><marker id="arrow-start-E7157B" viewBox="0 0 10 10" refX="9" refY="5" markerWidth="7" markerHeight="7" orient="auto-start-reverse"><path d="M0 0 L10 5 L0 10 z" fill="#E7157B"/></marker><marker id="arrow-7D8998" viewBox="0 0 10 10" refX="9" refY="5" markerWidth="7" markerHeight="7" orient="auto-start-reverse"><path d="M0 0 L10 5 L0 10 z" fill="#7D8998"/></marker><marker id="arrow-start-7D8998" viewBox="0 0 10 10" refX="9" refY="5" markerWidth="7" markerHeight="7" orient="auto-start-reverse"><path d="M0 0 L10 5 L0 10 z" fill="#7D8998"/></marker><marker id="arrow-DD344C" viewBox="0 0 10 10" refX="9" refY="5" markerWidth="7" markerHeight="7" orient="auto-start-reverse"><path d="M0 0 L10 5 L0 10 z" fill="#DD344C"/></marker><marker id="arrow-start-DD344C" viewBox="0 0 10 10" refX="9" refY="5" markerWidth="7" markerHeight="7" orient="auto-start-reverse"><path d="M0 0 L10 5 L0 10 z" fill="#DD344C"/></marker><marker id="arrow-ED7100" viewBox="0 0 10 10" refX="9" refY="5" markerWidth="7" markerHeight="7" orient="auto-start-reverse"><path d="M0 0 L10 5 L0 10 z" fill="#ED7100"/></marker><marker id="arrow-start-ED7100" viewBox="0 0 10 10" refX="9" refY="5" markerWidth="7" markerHeight="7" orient="auto-start-reverse"><path d="M0 0 L10 5 L0 10 z" fill="#ED7100"/></marker><marker id="arrow-7AA116" viewBox="0 0 10 10" refX="9" refY="5" markerWidth="7" markerHeight="7" orient="auto-start-reverse"><path d="M0 0 L10 5 L0 10 z" fill="#7AA116"/></marker><marker id="arrow-start-7AA116" viewBox="0 0 10 10" refX="9" refY="5" markerWidth="7" markerHeight="7" orient="auto-start-reverse"><path d="M0 0 L10 5 L0 10 z" fill="#7AA116"/></marker><marker id="arrow-00A4A6" viewBox="0 0 10 10" refX="9" refY="5" markerWidth="7" markerHeight="7" orient="auto-start-reverse"><path d="M0 0 L10 5 L0 10 z" fill="#00A4A6"/></marker><marker id="arrow-start-00A4A6" viewBox="0 0 10 10" refX="9" refY="5" markerWidth="7" markerHeight="7" orient="auto-start-reverse"><path d="M0 0 L10 5 L0 10 z" fill="#00A4A6"/></marker></defs><text x="24" y="34" font-family="'Amazon Ember','Segoe UI','Helvetica Neue',Arial,sans-serif" font-size="19" fill="#16191F" font-weight="700" text-anchor="start" letter-spacing="0">Identity isolation lab — detail</text><text x="24" y="54" font-family="'Amazon Ember','Segoe UI','Helvetica Neue',Arial,sans-serif" font-size="12" fill="#5A6B7B" font-weight="400" text-anchor="start" letter-spacing="0">Subnets, route tables, Transit Gateway route-table wiring, and the DNS path from the workload account to the domain controllers.</text><g opacity="1.0"><rect x="20" y="68" width="1380" height="1250" rx="8" fill="none" stroke="#232F3E" stroke-width="2"/><g><rect x="32" y="80" width="26" height="26" rx="4" fill="#232F3E"/><path d="M34.6 97.2 a4.4 4.4 0 0 1 0.5 -8.6 a6.2 6.2 0 0 1 12.0 -2.6 a4.9 4.9 0 0 1 8.3 5.2 a3.9 3.9 0 0 1 -1.0 6.0 Z" fill="#FFFFFF"/></g><text x="66" y="93" font-family="'Amazon Ember','Segoe UI','Helvetica Neue',Arial,sans-serif" font-size="13" fill="#232F3E" font-weight="700" text-anchor="start" letter-spacing="0">AWS Cloud</text></g><g opacity="1.0"><rect x="38" y="106" width="1344" height="1194" rx="8" fill="none" stroke="#00A4A6" stroke-width="2" stroke-dasharray="7 5"/><text x="52" y="131" font-family="'Amazon Ember','Segoe UI','Helvetica Neue',Arial,sans-serif" font-size="13" fill="#00A4A6" font-weight="700" text-anchor="start" letter-spacing="0">Region · us-east-1</text></g><g opacity="1.0"><rect x="58" y="148" width="1304" height="472" rx="8" fill="none" stroke="#E7157B" stroke-width="2"/><g><rect x="70" y="160" width="26" height="26" rx="4" fill="#E7157B"/><circle cx="83.0" cy="169.4" r="4.2" fill="#FFFFFF"/><path d="M75.2 181.8 a7.8 7.8 0 0 1 15.6 0 Z" fill="#FFFFFF"/></g><text x="104" y="173" font-family="'Amazon Ember','Segoe UI','Helvetica Neue',Arial,sans-serif" font-size="13" fill="#E7157B" font-weight="700" text-anchor="start" letter-spacing="0">AWS account · network</text><text x="104" y="188" font-family="'Amazon Ember','Segoe UI','Helvetica Neue',Arial,sans-serif" font-size="11" fill="#5A6B7B" font-weight="400" text-anchor="start" letter-spacing="0">172106476397</text></g><g opacity="1.0"><rect x="78" y="200" width="1264" height="404" rx="8" fill="#FBF9FF" stroke="#8C4FFF" stroke-width="2"/><g><rect x="90" y="212" width="26" height="26" rx="4" fill="#8C4FFF"/><path d="M103.0 215.6 L111.3 220.3 V229.7 L103.0 234.4 L94.7 229.7 V220.3 Z" fill="none" stroke="#FFFFFF" stroke-width="2.3"/></g><text x="124" y="225" font-family="'Amazon Ember','Segoe UI','Helvetica Neue',Arial,sans-serif" font-size="13" fill="#8C4FFF" font-weight="700" text-anchor="start" letter-spacing="0">Amazon VPC · 10.20.0.0/16</text><text x="124" y="240" font-family="'Amazon Ember','Segoe UI','Helvetica Neue',Arial,sans-serif" font-size="11" fill="#5A6B7B" font-weight="400" text-anchor="start" letter-spacing="0">DHCP option set → domain controller DNS</text></g><text x="356" y="174" font-family="'Amazon Ember','Segoe UI','Helvetica Neue',Arial,sans-serif" font-size="11" fill="#8C4FFF" font-weight="700" text-anchor="middle" letter-spacing="0">Internet gateway</text><g><rect x="338" y="182" width="36" height="36" rx="6" fill="#8C4FFF"/><rect x="342.3" y="195.7" width="27.4" height="8.6" rx="1.8" fill="#FFFFFF"/><path d="M356.0 184.9 V194.2 M356.0 205.8 V215.1" stroke="#FFFFFF" stroke-width="3.2" stroke-linecap="round"/></g><g opacity="1.0"><rect x="98" y="250" width="520" height="338" rx="8" fill="none" stroke="#00A4A6" stroke-width="2" stroke-dasharray="7 5"/><text x="112" y="275" font-family="'Amazon Ember','Segoe UI','Helvetica Neue',Arial,sans-serif" font-size="13" fill="#00A4A6" font-weight="700" text-anchor="start" letter-spacing="0">Availability Zone · us-east-1a</text></g><rect x="114" y="284" width="488" height="100" rx="6" fill="#F2F8EC" stroke="#7AA116" stroke-width="1.5"/><text x="128" y="303" font-family="'Amazon Ember','Segoe UI','Helvetica Neue',Arial,sans-serif" font-size="11" fill="#7AA116" font-weight="700" text-anchor="start" letter-spacing="0">Public subnet · 10.20.32.0/20</text><g><rect x="128" y="312" width="456" height="62" rx="6" fill="#FFFFFF" stroke="#D5DBDB" stroke-width="1"/><g><rect x="140" y="326.0" width="34" height="34" rx="6" fill="#8C4FFF"/><path d="M143.4 338.2 H165.2" stroke="#FFFFFF" stroke-width="3.4" stroke-linecap="round" fill="none"/><path d="M161.1 332.8 L170.6 338.2 L161.1 343.7 Z" fill="#FFFFFF"/><path d="M170.6 349.8 H148.8" stroke="#FFFFFF" stroke-width="3.4" stroke-linecap="round" fill="none"/><path d="M152.9 344.4 L143.4 349.8 L152.9 355.2 Z" fill="#FFFFFF"/></g><text x="186" y="340.5" font-family="'Amazon Ember','Segoe UI','Helvetica Neue',Arial,sans-serif" font-size="12.5" fill="#16191F" font-weight="700" text-anchor="start" letter-spacing="0">NAT gateway</text><text x="186" y="355.5" font-family="'Amazon Ember','Segoe UI','Helvetica Neue',Arial,sans-serif" font-size="11" fill="#5A6B7B" font-weight="400" text-anchor="start" letter-spacing="0">single, shared — the only path to the internet</text></g><rect x="114" y="398" width="488" height="176" rx="6" fill="#E6F6F6" stroke="#00A4A6" stroke-width="1.5"/><text x="128" y="417" font-family="'Amazon Ember','Segoe UI','Helvetica Neue',Arial,sans-serif" font-size="11" fill="#00A4A6" font-weight="700" text-anchor="start" letter-spacing="0">Private subnet · 10.20.0.0/20</text><g><rect x="128" y="430" width="144" height="112" rx="6" fill="#FFFFFF" stroke="#D5DBDB" stroke-width="1"/><g><rect x="183.0" y="442" width="34" height="34" rx="6" fill="#DD344C"/><rect x="194.6" y="444.7" width="10.9" height="7.5" rx="2" fill="#FFFFFF"/><rect x="184.4" y="464.4" width="10.2" height="7.5" rx="2" fill="#FFFFFF"/><rect x="205.4" y="464.4" width="10.2" height="7.5" rx="2" fill="#FFFFFF"/><path d="M200.0 452.2 V459.7 M189.5 464.4 V459.7 H210.5 V464.4" stroke="#FFFFFF" stroke-width="2.5" fill="none" stroke-linecap="round"/></g><text x="200.0" y="493" font-family="'Amazon Ember','Segoe UI','Helvetica Neue',Arial,sans-serif" font-size="11.5" fill="#16191F" font-weight="700" text-anchor="middle" letter-spacing="0">DC 1</text><text x="200.0" y="507" font-family="'Amazon Ember','Segoe UI','Helvetica Neue',Arial,sans-serif" font-size="10" fill="#5A6B7B" font-weight="400" text-anchor="middle" letter-spacing="0">Managed</text><text x="200.0" y="519" font-family="'Amazon Ember','Segoe UI','Helvetica Neue',Arial,sans-serif" font-size="10" fill="#5A6B7B" font-weight="400" text-anchor="middle" letter-spacing="0">Microsoft AD</text></g><g><rect x="290" y="430" width="144" height="112" rx="6" fill="#FFFFFF" stroke="#D5DBDB" stroke-width="1"/><g><rect x="345.0" y="442" width="34" height="34" rx="6" fill="#8C4FFF"/><circle cx="362.0" cy="459.0" r="12.2" fill="none" stroke="#FFFFFF" stroke-width="2.9"/><path d="M349.8 459.0 H374.2" stroke="#FFFFFF" stroke-width="2.5"/><ellipse cx="362.0" cy="459.0" rx="5.9" ry="12.2" fill="none" stroke="#FFFFFF" stroke-width="2.5"/></g><text x="362.0" y="493" font-family="'Amazon Ember','Segoe UI','Helvetica Neue',Arial,sans-serif" font-size="11.5" fill="#16191F" font-weight="700" text-anchor="middle" letter-spacing="0">Resolver inbound</text><text x="362.0" y="507" font-family="'Amazon Ember','Segoe UI','Helvetica Neue',Arial,sans-serif" font-size="10" fill="#5A6B7B" font-weight="400" text-anchor="middle" letter-spacing="0">queries from spokes</text></g><g><rect x="452" y="430" width="144" height="112" rx="6" fill="#FFFFFF" stroke="#D5DBDB" stroke-width="1"/><g><rect x="507.0" y="442" width="34" height="34" rx="6" fill="#8C4FFF"/><path d="M524.0 448.8 L534.2 459.0 L524.0 469.2 L513.8 459.0 Z" fill="#FFFFFF"/><path d="M524.0 445.9 L524.0 439.1" stroke="#FFFFFF" stroke-width="2.9" stroke-linecap="round"/><path d="M537.1 459.0 L543.9 459.0" stroke="#FFFFFF" stroke-width="2.9" stroke-linecap="round"/><path d="M524.0 472.1 L524.0 478.9" stroke="#FFFFFF" stroke-width="2.9" stroke-linecap="round"/><path d="M510.9 459.0 L504.1 459.0" stroke="#FFFFFF" stroke-width="2.9" stroke-linecap="round"/></g><text x="524.0" y="493" font-family="'Amazon Ember','Segoe UI','Helvetica Neue',Arial,sans-serif" font-size="11.5" fill="#16191F" font-weight="700" text-anchor="middle" letter-spacing="0">TGW</text><text x="524.0" y="507" font-family="'Amazon Ember','Segoe UI','Helvetica Neue',Arial,sans-serif" font-size="10" fill="#5A6B7B" font-weight="400" text-anchor="middle" letter-spacing="0">attachment ENI</text></g><g opacity="1.0"><rect x="638" y="250" width="520" height="338" rx="8" fill="none" stroke="#00A4A6" stroke-width="2" stroke-dasharray="7 5"/><text x="652" y="275" font-family="'Amazon Ember','Segoe UI','Helvetica Neue',Arial,sans-serif" font-size="13" fill="#00A4A6" font-weight="700" text-anchor="start" letter-spacing="0">Availability Zone · us-east-1b</text></g><rect x="654" y="284" width="488" height="100" rx="6" fill="#F2F8EC" stroke="#7AA116" stroke-width="1.5"/><text x="668" y="303" font-family="'Amazon Ember','Segoe UI','Helvetica Neue',Arial,sans-serif" font-size="11" fill="#7AA116" font-weight="700" text-anchor="start" letter-spacing="0">Public subnet · 10.20.48.0/20</text><text x="898" y="348" font-family="'Amazon Ember','Segoe UI','Helvetica Neue',Arial,sans-serif" font-size="11" fill="#5A6B7B" font-weight="400" text-anchor="middle" letter-spacing="0">reserved — no NAT in this AZ</text><rect x="654" y="398" width="488" height="176" rx="6" fill="#E6F6F6" stroke="#00A4A6" stroke-width="1.5"/><text x="668" y="417" font-family="'Amazon Ember','Segoe UI','Helvetica Neue',Arial,sans-serif" font-size="11" fill="#00A4A6" font-weight="700" text-anchor="start" letter-spacing="0">Private subnet · 10.20.16.0/20</text><g><rect x="668" y="430" width="144" height="112" rx="6" fill="#FFFFFF" stroke="#D5DBDB" stroke-width="1"/><g><rect x="723.0" y="442" width="34" height="34" rx="6" fill="#DD344C"/><rect x="734.6" y="444.7" width="10.9" height="7.5" rx="2" fill="#FFFFFF"/><rect x="724.4" y="464.4" width="10.2" height="7.5" rx="2" fill="#FFFFFF"/><rect x="745.4" y="464.4" width="10.2" height="7.5" rx="2" fill="#FFFFFF"/><path d="M740.0 452.2 V459.7 M729.5 464.4 V459.7 H750.5 V464.4" stroke="#FFFFFF" stroke-width="2.5" fill="none" stroke-linecap="round"/></g><text x="740.0" y="493" font-family="'Amazon Ember','Segoe UI','Helvetica Neue',Arial,sans-serif" font-size="11.5" fill="#16191F" font-weight="700" text-anchor="middle" letter-spacing="0">DC 2</text><text x="740.0" y="507" font-family="'Amazon Ember','Segoe UI','Helvetica Neue',Arial,sans-serif" font-size="10" fill="#5A6B7B" font-weight="400" text-anchor="middle" letter-spacing="0">Managed</text><text x="740.0" y="519" font-family="'Amazon Ember','Segoe UI','Helvetica Neue',Arial,sans-serif" font-size="10" fill="#5A6B7B" font-weight="400" text-anchor="middle" letter-spacing="0">Microsoft AD</text></g><g><rect x="830" y="430" width="144" height="112" rx="6" fill="#FFFFFF" stroke="#D5DBDB" stroke-width="1"/><g><rect x="885.0" y="442" width="34" height="34" rx="6" fill="#8C4FFF"/><circle cx="902.0" cy="459.0" r="12.2" fill="none" stroke="#FFFFFF" stroke-width="2.9"/><path d="M889.8 459.0 H914.2" stroke="#FFFFFF" stroke-width="2.5"/><ellipse cx="902.0" cy="459.0" rx="5.9" ry="12.2" fill="none" stroke="#FFFFFF" stroke-width="2.5"/></g><text x="902.0" y="493" font-family="'Amazon Ember','Segoe UI','Helvetica Neue',Arial,sans-serif" font-size="11.5" fill="#16191F" font-weight="700" text-anchor="middle" letter-spacing="0">Resolver outbound</text><text x="902.0" y="507" font-family="'Amazon Ember','Segoe UI','Helvetica Neue',Arial,sans-serif" font-size="10" fill="#5A6B7B" font-weight="400" text-anchor="middle" letter-spacing="0">forwards the AD zone</text></g><g><rect x="992" y="430" width="144" height="112" rx="6" fill="#FFFFFF" stroke="#D5DBDB" stroke-width="1"/><g><rect x="1047.0" y="442" width="34" height="34" rx="6" fill="#8C4FFF"/><path d="M1064.0 448.8 L1074.2 459.0 L1064.0 469.2 L1053.8 459.0 Z" fill="#FFFFFF"/><path d="M1064.0 445.9 L1064.0 439.1" stroke="#FFFFFF" stroke-width="2.9" stroke-linecap="round"/><path d="M1077.1 459.0 L1083.9 459.0" stroke="#FFFFFF" stroke-width="2.9" stroke-linecap="round"/><path d="M1064.0 472.1 L1064.0 478.9" stroke="#FFFFFF" stroke-width="2.9" stroke-linecap="round"/><path d="M1050.9 459.0 L1044.1 459.0" stroke="#FFFFFF" stroke-width="2.9" stroke-linecap="round"/></g><text x="1064.0" y="493" font-family="'Amazon Ember','Segoe UI','Helvetica Neue',Arial,sans-serif" font-size="11.5" fill="#16191F" font-weight="700" text-anchor="middle" letter-spacing="0">TGW</text><text x="1064.0" y="507" font-family="'Amazon Ember','Segoe UI','Helvetica Neue',Arial,sans-serif" font-size="10" fill="#5A6B7B" font-weight="400" text-anchor="middle" letter-spacing="0">attachment ENI</text></g><path d="M356 312 L356 222" stroke="#8C4FFF" stroke-width="2" fill="none" marker-end="url(#arrow-8C4FFF)" stroke-linecap="round"/><text x="1178" y="272" font-family="'Amazon Ember','Segoe UI','Helvetica Neue',Arial,sans-serif" font-size="11.5" fill="#5A6B7B" font-weight="700" text-anchor="start" letter-spacing="0">Route tables</text><rect x="1178" y="284" width="146" height="100" rx="6" fill="#F6F2FF" stroke="#8C4FFF" stroke-width="1.5"/><g><rect x="1188" y="294" width="22" height="22" rx="4" fill="#8C4FFF"/><rect x="1191.1" y="298.0" width="15.8" height="14.1" rx="1.1" fill="none" stroke="#FFFFFF" stroke-width="1.9"/><path d="M1191.1 302.8 H1206.9 M1191.1 307.2 H1206.9 M1197.7 298.0 V312.0" stroke="#FFFFFF" stroke-width="1.3"/></g><text x="1216" y="309" font-family="'Amazon Ember','Segoe UI','Helvetica Neue',Arial,sans-serif" font-size="10.5" fill="#8C4FFF" font-weight="700" text-anchor="start" letter-spacing="0">public</text><text x="1189" y="334" font-family="'Amazon Ember','Segoe UI','Helvetica Neue',Arial,sans-serif" font-size="9.5" fill="#5A6B7B" font-weight="400" text-anchor="start" letter-spacing="0">0.0.0.0/0 → IGW</text><text x="1189" y="348" font-family="'Amazon Ember','Segoe UI','Helvetica Neue',Arial,sans-serif" font-size="9.5" fill="#5A6B7B" font-weight="400" text-anchor="start" letter-spacing="0">10.0.0.0/8 → TGW</text><rect x="1178" y="398" width="146" height="176" rx="6" fill="#F6F2FF" stroke="#8C4FFF" stroke-width="1.5"/><g><rect x="1188" y="408" width="22" height="22" rx="4" fill="#8C4FFF"/><rect x="1191.1" y="412.0" width="15.8" height="14.1" rx="1.1" fill="none" stroke="#FFFFFF" stroke-width="1.9"/><path d="M1191.1 416.8 H1206.9 M1191.1 421.2 H1206.9 M1197.7 412.0 V426.0" stroke="#FFFFFF" stroke-width="1.3"/></g><text x="1216" y="423" font-family="'Amazon Ember','Segoe UI','Helvetica Neue',Arial,sans-serif" font-size="10.5" fill="#8C4FFF" font-weight="700" text-anchor="start" letter-spacing="0">private</text><text x="1189" y="448" font-family="'Amazon Ember','Segoe UI','Helvetica Neue',Arial,sans-serif" font-size="9.5" fill="#5A6B7B" font-weight="400" text-anchor="start" letter-spacing="0">0.0.0.0/0 → NAT</text><text x="1189" y="462" font-family="'Amazon Ember','Segoe UI','Helvetica Neue',Arial,sans-serif" font-size="9.5" fill="#5A6B7B" font-weight="400" text-anchor="start" letter-spacing="0">10.0.0.0/8 → TGW</text><text x="1189" y="476" font-family="'Amazon Ember','Segoe UI','Helvetica Neue',Arial,sans-serif" font-size="9.5" fill="#5A6B7B" font-weight="400" text-anchor="start" letter-spacing="0"></text><text x="1189" y="490" font-family="'Amazon Ember','Segoe UI','Helvetica Neue',Arial,sans-serif" font-size="9.5" fill="#5A6B7B" font-weight="400" text-anchor="start" letter-spacing="0">one table —</text><text x="1189" y="504" font-family="'Amazon Ember','Segoe UI','Helvetica Neue',Arial,sans-serif" font-size="9.5" fill="#5A6B7B" font-weight="400" text-anchor="start" letter-spacing="0">single NAT gateway</text><path d="M620 620 L620 662" stroke="#8C4FFF" stroke-width="3" fill="none" marker-end="url(#arrow-8C4FFF)" marker-start="url(#arrow-start-8C4FFF)" stroke-linecap="round"/><g><rect x="705.4" y="631" width="349.2" height="20" rx="10" fill="#FFFFFF" stroke="#8C4FFF" stroke-width="1"/><text x="880" y="645" font-family="'Amazon Ember','Segoe UI','Helvetica Neue',Arial,sans-serif" font-size="10.5" fill="#8C4FFF" font-weight="600" text-anchor="middle" letter-spacing="0">network VPC attachment · associated with the shared table</text></g><g opacity="1.0"><rect x="380" y="664" width="660" height="272" rx="8" fill="#FCFBFF" stroke="#8C4FFF" stroke-width="2"/><g><rect x="392" y="676" width="26" height="26" rx="4" fill="#8C4FFF"/><path d="M405.0 681.2 L412.8 689.0 L405.0 696.8 L397.2 689.0 Z" fill="#FFFFFF"/><path d="M405.0 679.0 L405.0 673.8" stroke="#FFFFFF" stroke-width="2.2" stroke-linecap="round"/><path d="M415.0 689.0 L420.2 689.0" stroke="#FFFFFF" stroke-width="2.2" stroke-linecap="round"/><path d="M405.0 699.0 L405.0 704.2" stroke="#FFFFFF" stroke-width="2.2" stroke-linecap="round"/><path d="M395.0 689.0 L389.8 689.0" stroke="#FFFFFF" stroke-width="2.2" stroke-linecap="round"/></g><text x="426" y="689" font-family="'Amazon Ember','Segoe UI','Helvetica Neue',Arial,sans-serif" font-size="13" fill="#8C4FFF" font-weight="700" text-anchor="start" letter-spacing="0">AWS Transit Gateway</text><text x="426" y="704" font-family="'Amazon Ember','Segoe UI','Helvetica Neue',Arial,sans-serif" font-size="11" fill="#5A6B7B" font-weight="400" text-anchor="start" letter-spacing="0">default association and propagation both disabled</text></g><rect x="404" y="722" width="300" height="196" rx="6" fill="#F6F2FF" stroke="#8C4FFF" stroke-width="1.5"/><g><rect x="416" y="734" width="26" height="26" rx="4" fill="#8C4FFF"/><rect x="419.6" y="738.7" width="18.7" height="16.6" rx="1.3" fill="none" stroke="#FFFFFF" stroke-width="2.2"/><path d="M419.6 744.4 H438.4 M419.6 749.6 H438.4 M427.4 738.7 V755.3" stroke="#FFFFFF" stroke-width="1.6"/></g><text x="450" y="752" font-family="'Amazon Ember','Segoe UI','Helvetica Neue',Arial,sans-serif" font-size="12.5" fill="#8C4FFF" font-weight="700" text-anchor="start" letter-spacing="0">shared route table</text><text x="418" y="780" font-family="'Amazon Ember','Segoe UI','Helvetica Neue',Arial,sans-serif" font-size="10.5" fill="#5A6B7B" font-weight="400" text-anchor="start" letter-spacing="0">associated · network VPC attachment</text><text x="418" y="795" font-family="'Amazon Ember','Segoe UI','Helvetica Neue',Arial,sans-serif" font-size="10.5" fill="#5A6B7B" font-weight="400" text-anchor="start" letter-spacing="0">propagated · every attachment</text><text x="418" y="810" font-family="'Amazon Ember','Segoe UI','Helvetica Neue',Arial,sans-serif" font-size="10.5" fill="#5A6B7B" font-weight="400" text-anchor="start" letter-spacing="0"></text><text x="418" y="825" font-family="'Amazon Ember','Segoe UI','Helvetica Neue',Arial,sans-serif" font-size="10.5" fill="#5A6B7B" font-weight="400" text-anchor="start" letter-spacing="0">10.20.0.0/16 → network VPC</text><text x="418" y="840" font-family="'Amazon Ember','Segoe UI','Helvetica Neue',Arial,sans-serif" font-size="10.5" fill="#5A6B7B" font-weight="400" text-anchor="start" letter-spacing="0">10.30.0.0/16 → workload VPC</text><rect x="716" y="722" width="300" height="196" rx="6" fill="#F6F2FF" stroke="#8C4FFF" stroke-width="1.5"/><g><rect x="728" y="734" width="26" height="26" rx="4" fill="#8C4FFF"/><rect x="731.6" y="738.7" width="18.7" height="16.6" rx="1.3" fill="none" stroke="#FFFFFF" stroke-width="2.2"/><path d="M731.6 744.4 H750.4 M731.6 749.6 H750.4 M739.4 738.7 V755.3" stroke="#FFFFFF" stroke-width="1.6"/></g><text x="762" y="752" font-family="'Amazon Ember','Segoe UI','Helvetica Neue',Arial,sans-serif" font-size="12.5" fill="#8C4FFF" font-weight="700" text-anchor="start" letter-spacing="0">spoke route table</text><text x="730" y="780" font-family="'Amazon Ember','Segoe UI','Helvetica Neue',Arial,sans-serif" font-size="10.5" fill="#5A6B7B" font-weight="400" text-anchor="start" letter-spacing="0">associated · every spoke attachment</text><text x="730" y="795" font-family="'Amazon Ember','Segoe UI','Helvetica Neue',Arial,sans-serif" font-size="10.5" fill="#5A6B7B" font-weight="400" text-anchor="start" letter-spacing="0">propagated · network VPC only</text><text x="730" y="810" font-family="'Amazon Ember','Segoe UI','Helvetica Neue',Arial,sans-serif" font-size="10.5" fill="#5A6B7B" font-weight="400" text-anchor="start" letter-spacing="0"></text><text x="730" y="825" font-family="'Amazon Ember','Segoe UI','Helvetica Neue',Arial,sans-serif" font-size="10.5" fill="#5A6B7B" font-weight="400" text-anchor="start" letter-spacing="0">10.20.0.0/16 → network VPC</text><text x="730" y="840" font-family="'Amazon Ember','Segoe UI','Helvetica Neue',Arial,sans-serif" font-size="10.5" fill="#5A6B7B" font-weight="400" text-anchor="start" letter-spacing="0">0.0.0.0/0     → network VPC</text><rect x="728" y="879" width="276" height="22" rx="11" fill="#8C4FFF"/><text x="866.0" y="895" font-family="'Amazon Ember','Segoe UI','Helvetica Neue',Arial,sans-serif" font-size="10.5" fill="#FFFFFF" font-weight="700" text-anchor="middle" letter-spacing="0">no spoke-to-spoke routes</text><path d="M1040 800 L1100 800" stroke="#7D8998" stroke-width="1.5" fill="none" stroke-dasharray="6 4" marker-end="url(#arrow-7D8998)" stroke-linecap="round"/><text x="1108" y="794" font-family="'Amazon Ember','Segoe UI','Helvetica Neue',Arial,sans-serif" font-size="10.5" fill="#5A6B7B" font-weight="400" text-anchor="start" letter-spacing="0">a second spoke associates</text><text x="1108" y="808" font-family="'Amazon Ember','Segoe UI','Helvetica Neue',Arial,sans-serif" font-size="10.5" fill="#5A6B7B" font-weight="400" text-anchor="start" letter-spacing="0">with the same spoke table</text><path d="M620 936 L620 978" stroke="#8C4FFF" stroke-width="3" fill="none" marker-end="url(#arrow-8C4FFF)" marker-start="url(#arrow-start-8C4FFF)" stroke-linecap="round"/><g><rect x="705.4" y="947" width="349.2" height="20" rx="10" fill="#FFFFFF" stroke="#8C4FFF" stroke-width="1"/><text x="880" y="961" font-family="'Amazon Ember','Segoe UI','Helvetica Neue',Arial,sans-serif" font-size="10.5" fill="#8C4FFF" font-weight="600" text-anchor="middle" letter-spacing="0">workload VPC attachment · accepted in the network account</text></g><g opacity="1.0"><rect x="58" y="980" width="1304" height="310" rx="8" fill="none" stroke="#E7157B" stroke-width="2"/><g><rect x="70" y="992" width="26" height="26" rx="4" fill="#E7157B"/><circle cx="83.0" cy="1001.4" r="4.2" fill="#FFFFFF"/><path d="M75.2 1013.8 a7.8 7.8 0 0 1 15.6 0 Z" fill="#FFFFFF"/></g><text x="104" y="1005" font-family="'Amazon Ember','Segoe UI','Helvetica Neue',Arial,sans-serif" font-size="13" fill="#E7157B" font-weight="700" text-anchor="start" letter-spacing="0">AWS account · workload</text><text x="104" y="1020" font-family="'Amazon Ember','Segoe UI','Helvetica Neue',Arial,sans-serif" font-size="11" fill="#5A6B7B" font-weight="400" text-anchor="start" letter-spacing="0">594775506233</text></g><g opacity="1.0"><rect x="78" y="1024" width="1264" height="238" rx="8" fill="#FBF9FF" stroke="#8C4FFF" stroke-width="2"/><g><rect x="90" y="1036" width="26" height="26" rx="4" fill="#8C4FFF"/><path d="M103.0 1039.6 L111.3 1044.3 V1053.7 L103.0 1058.4 L94.7 1053.7 V1044.3 Z" fill="none" stroke="#FFFFFF" stroke-width="2.3"/></g><text x="124" y="1049" font-family="'Amazon Ember','Segoe UI','Helvetica Neue',Arial,sans-serif" font-size="13" fill="#8C4FFF" font-weight="700" text-anchor="start" letter-spacing="0">Amazon VPC · 10.30.0.0/16</text><text x="124" y="1064" font-family="'Amazon Ember','Segoe UI','Helvetica Neue',Arial,sans-serif" font-size="11" fill="#5A6B7B" font-weight="400" text-anchor="start" letter-spacing="0">private subnets only · no internet gateway · no NAT</text></g><g><rect x="720" y="1030" width="260" height="42" rx="6" fill="#FFFFFF" stroke="#D5DBDB" stroke-width="1"/><g><rect x="732" y="1034.0" width="34" height="34" rx="6" fill="#8C4FFF"/><circle cx="749.0" cy="1051.0" r="12.2" fill="none" stroke="#FFFFFF" stroke-width="2.9"/><path d="M736.8 1051.0 H761.2" stroke="#FFFFFF" stroke-width="2.5"/><ellipse cx="749.0" cy="1051.0" rx="5.9" ry="12.2" fill="none" stroke="#FFFFFF" stroke-width="2.5"/></g><text x="778" y="1055.0" font-family="'Amazon Ember','Segoe UI','Helvetica Neue',Arial,sans-serif" font-size="12.5" fill="#16191F" font-weight="700" text-anchor="start" letter-spacing="0">Route 53 Resolver rule (shared)</text></g><g><rect x="1000" y="1030" width="280" height="42" rx="6" fill="#FFFFFF" stroke="#D5DBDB" stroke-width="1"/><g><rect x="1012" y="1034.0" width="34" height="34" rx="6" fill="#E7157B"/><polygon points="1040.6,1051.0 1036.9,1054.3 1037.2,1059.2 1032.3,1058.9 1029.0,1062.6 1025.7,1058.9 1020.8,1059.2 1021.1,1054.3 1017.4,1051.0 1021.1,1047.7 1020.8,1042.8 1025.7,1043.1 1029.0,1039.4 1032.3,1043.1 1037.2,1042.8 1036.9,1047.7" fill="#FFFFFF"/><circle cx="1029.0" cy="1051.0" r="5.8" fill="none" stroke="#FFFFFF" stroke-width="0" /><circle cx="1029.0" cy="1051.0" r="4.2" fill="#FFFFFF"/></g><text x="1058" y="1055.0" font-family="'Amazon Ember','Segoe UI','Helvetica Neue',Arial,sans-serif" font-size="12.5" fill="#16191F" font-weight="700" text-anchor="start" letter-spacing="0">SSM seamless domain join</text></g><g opacity="1.0"><rect x="98" y="1078" width="520" height="166" rx="8" fill="none" stroke="#00A4A6" stroke-width="2" stroke-dasharray="7 5"/><text x="112" y="1103" font-family="'Amazon Ember','Segoe UI','Helvetica Neue',Arial,sans-serif" font-size="13" fill="#00A4A6" font-weight="700" text-anchor="start" letter-spacing="0">Availability Zone · us-east-1a</text></g><rect x="114" y="1108" width="488" height="120" rx="6" fill="#E6F6F6" stroke="#00A4A6" stroke-width="1.5"/><text x="128" y="1127" font-family="'Amazon Ember','Segoe UI','Helvetica Neue',Arial,sans-serif" font-size="11" fill="#00A4A6" font-weight="700" text-anchor="start" letter-spacing="0">Private subnet · 10.30.0.0/20</text><g><rect x="128" y="1136" width="224" height="80" rx="6" fill="#FFFFFF" stroke="#D5DBDB" stroke-width="1"/><g><rect x="140" y="1159.0" width="34" height="34" rx="6" fill="#ED7100"/><rect x="145.4" y="1164.4" width="10.2" height="10.2" rx="1.5" fill="#FFFFFF"/><rect x="145.4" y="1176.8" width="10.2" height="10.2" rx="1.5" fill="#FFFFFF"/><rect x="157.8" y="1164.4" width="10.2" height="10.2" rx="1.5" fill="#FFFFFF"/><rect x="157.8" y="1176.8" width="10.2" height="10.2" rx="1.5" fill="#FFFFFF"/></g><text x="186" y="1167.0" font-family="'Amazon Ember','Segoe UI','Helvetica Neue',Arial,sans-serif" font-size="12.5" fill="#16191F" font-weight="700" text-anchor="start" letter-spacing="0">Windows Server 2022</text><text x="186" y="1182.0" font-family="'Amazon Ember','Segoe UI','Helvetica Neue',Arial,sans-serif" font-size="11" fill="#5A6B7B" font-weight="400" text-anchor="start" letter-spacing="0">domain joined via SSM</text><text x="186" y="1195.0" font-family="'Amazon Ember','Segoe UI','Helvetica Neue',Arial,sans-serif" font-size="11" fill="#5A6B7B" font-weight="400" text-anchor="start" letter-spacing="0">no key pair · no ingress</text></g><g><rect x="368" y="1136" width="216" height="80" rx="6" fill="#FFFFFF" stroke="#D5DBDB" stroke-width="1"/><g><rect x="380" y="1159.0" width="34" height="34" rx="6" fill="#8C4FFF"/><path d="M397.0 1165.8 L407.2 1176.0 L397.0 1186.2 L386.8 1176.0 Z" fill="#FFFFFF"/><path d="M397.0 1162.9 L397.0 1156.1" stroke="#FFFFFF" stroke-width="2.9" stroke-linecap="round"/><path d="M410.1 1176.0 L416.9 1176.0" stroke="#FFFFFF" stroke-width="2.9" stroke-linecap="round"/><path d="M397.0 1189.1 L397.0 1195.9" stroke="#FFFFFF" stroke-width="2.9" stroke-linecap="round"/><path d="M383.9 1176.0 L377.1 1176.0" stroke="#FFFFFF" stroke-width="2.9" stroke-linecap="round"/></g><text x="426" y="1173.5" font-family="'Amazon Ember','Segoe UI','Helvetica Neue',Arial,sans-serif" font-size="12.5" fill="#16191F" font-weight="700" text-anchor="start" letter-spacing="0">TGW</text><text x="426" y="1188.5" font-family="'Amazon Ember','Segoe UI','Helvetica Neue',Arial,sans-serif" font-size="11" fill="#5A6B7B" font-weight="400" text-anchor="start" letter-spacing="0">attachment ENI</text></g><g opacity="1.0"><rect x="638" y="1078" width="520" height="166" rx="8" fill="none" stroke="#00A4A6" stroke-width="2" stroke-dasharray="7 5"/><text x="652" y="1103" font-family="'Amazon Ember','Segoe UI','Helvetica Neue',Arial,sans-serif" font-size="13" fill="#00A4A6" font-weight="700" text-anchor="start" letter-spacing="0">Availability Zone · us-east-1b</text></g><rect x="654" y="1108" width="488" height="120" rx="6" fill="#E6F6F6" stroke="#00A4A6" stroke-width="1.5"/><text x="668" y="1127" font-family="'Amazon Ember','Segoe UI','Helvetica Neue',Arial,sans-serif" font-size="11" fill="#00A4A6" font-weight="700" text-anchor="start" letter-spacing="0">Private subnet · 10.30.16.0/20</text><g><rect x="668" y="1136" width="216" height="80" rx="6" fill="#FFFFFF" stroke="#D5DBDB" stroke-width="1"/><g><rect x="680" y="1159.0" width="34" height="34" rx="6" fill="#8C4FFF"/><path d="M697.0 1165.8 L707.2 1176.0 L697.0 1186.2 L686.8 1176.0 Z" fill="#FFFFFF"/><path d="M697.0 1162.9 L697.0 1156.1" stroke="#FFFFFF" stroke-width="2.9" stroke-linecap="round"/><path d="M710.1 1176.0 L716.9 1176.0" stroke="#FFFFFF" stroke-width="2.9" stroke-linecap="round"/><path d="M697.0 1189.1 L697.0 1195.9" stroke="#FFFFFF" stroke-width="2.9" stroke-linecap="round"/><path d="M683.9 1176.0 L677.1 1176.0" stroke="#FFFFFF" stroke-width="2.9" stroke-linecap="round"/></g><text x="726" y="1173.5" font-family="'Amazon Ember','Segoe UI','Helvetica Neue',Arial,sans-serif" font-size="12.5" fill="#16191F" font-weight="700" text-anchor="start" letter-spacing="0">TGW</text><text x="726" y="1188.5" font-family="'Amazon Ember','Segoe UI','Helvetica Neue',Arial,sans-serif" font-size="11" fill="#5A6B7B" font-weight="400" text-anchor="start" letter-spacing="0">attachment ENI</text></g><text x="1014" y="1181" font-family="'Amazon Ember','Segoe UI','Helvetica Neue',Arial,sans-serif" font-size="11" fill="#5A6B7B" font-weight="400" text-anchor="middle" letter-spacing="0">second AZ — attachment ENI only</text><text x="1178" y="1100" font-family="'Amazon Ember','Segoe UI','Helvetica Neue',Arial,sans-serif" font-size="11.5" fill="#5A6B7B" font-weight="700" text-anchor="start" letter-spacing="0">Route tables</text><rect x="1178" y="1112" width="146" height="116" rx="6" fill="#F6F2FF" stroke="#8C4FFF" stroke-width="1.5"/><g><rect x="1188" y="1122" width="22" height="22" rx="4" fill="#8C4FFF"/><rect x="1191.1" y="1126.0" width="15.8" height="14.1" rx="1.1" fill="none" stroke="#FFFFFF" stroke-width="1.9"/><path d="M1191.1 1130.8 H1206.9 M1191.1 1135.2 H1206.9 M1197.7 1126.0 V1140.0" stroke="#FFFFFF" stroke-width="1.3"/></g><text x="1216" y="1137" font-family="'Amazon Ember','Segoe UI','Helvetica Neue',Arial,sans-serif" font-size="10.5" fill="#8C4FFF" font-weight="700" text-anchor="start" letter-spacing="0">private × 2</text><text x="1189" y="1162" font-family="'Amazon Ember','Segoe UI','Helvetica Neue',Arial,sans-serif" font-size="9.5" fill="#5A6B7B" font-weight="400" text-anchor="start" letter-spacing="0">0.0.0.0/0 → TGW</text><text x="1189" y="1176" font-family="'Amazon Ember','Segoe UI','Helvetica Neue',Arial,sans-serif" font-size="9.5" fill="#5A6B7B" font-weight="400" text-anchor="start" letter-spacing="0"></text><text x="1189" y="1190" font-family="'Amazon Ember','Segoe UI','Helvetica Neue',Arial,sans-serif" font-size="9.5" fill="#5A6B7B" font-weight="400" text-anchor="start" letter-spacing="0">one table per AZ —</text><text x="1189" y="1204" font-family="'Amazon Ember','Segoe UI','Helvetica Neue',Arial,sans-serif" font-size="9.5" fill="#5A6B7B" font-weight="400" text-anchor="start" letter-spacing="0">egress is remote</text><g><circle cx="352" cy="1136" r="11" fill="#232F3E" stroke="#FFFFFF" stroke-width="2"/><text x="352" y="1140" font-family="'Amazon Ember','Segoe UI','Helvetica Neue',Arial,sans-serif" font-size="11.5" fill="#FFFFFF" font-weight="700" text-anchor="middle" letter-spacing="0">1</text></g><g><circle cx="980" cy="1030" r="11" fill="#232F3E" stroke="#FFFFFF" stroke-width="2"/><text x="980" y="1034" font-family="'Amazon Ember','Segoe UI','Helvetica Neue',Arial,sans-serif" font-size="11.5" fill="#FFFFFF" font-weight="700" text-anchor="middle" letter-spacing="0">2</text></g><g><circle cx="1016" cy="722" r="11" fill="#232F3E" stroke="#FFFFFF" stroke-width="2"/><text x="1016" y="726" font-family="'Amazon Ember','Segoe UI','Helvetica Neue',Arial,sans-serif" font-size="11.5" fill="#FFFFFF" font-weight="700" text-anchor="middle" letter-spacing="0">3</text></g><g><circle cx="974" cy="430" r="11" fill="#232F3E" stroke="#FFFFFF" stroke-width="2"/><text x="974" y="434" font-family="'Amazon Ember','Segoe UI','Helvetica Neue',Arial,sans-serif" font-size="11.5" fill="#FFFFFF" font-weight="700" text-anchor="middle" letter-spacing="0">4</text></g><g><circle cx="812" cy="430" r="11" fill="#232F3E" stroke="#FFFFFF" stroke-width="2"/><text x="812" y="434" font-family="'Amazon Ember','Segoe UI','Helvetica Neue',Arial,sans-serif" font-size="11.5" fill="#FFFFFF" font-weight="700" text-anchor="middle" letter-spacing="0">5</text></g><text x="24" y="1352" font-family="'Amazon Ember','Segoe UI','Helvetica Neue',Arial,sans-serif" font-size="13" fill="#16191F" font-weight="700" text-anchor="start" letter-spacing="0">Resolving corp.theuptimestudio.co from the workload account</text><g><circle cx="34" cy="1374" r="11" fill="#232F3E" stroke="#FFFFFF" stroke-width="2"/><text x="34" y="1378" font-family="'Amazon Ember','Segoe UI','Helvetica Neue',Arial,sans-serif" font-size="11.5" fill="#FFFFFF" font-weight="700" text-anchor="middle" letter-spacing="0">1</text></g><text x="54" y="1378" font-family="'Amazon Ember','Segoe UI','Helvetica Neue',Arial,sans-serif" font-size="11" fill="#5A6B7B" font-weight="400" text-anchor="start" letter-spacing="0">The instance asks the Amazon resolver at 10.30.0.2 — the workload VPC keeps the default DNS server.</text><g><circle cx="34" cy="1393" r="11" fill="#232F3E" stroke="#FFFFFF" stroke-width="2"/><text x="34" y="1397" font-family="'Amazon Ember','Segoe UI','Helvetica Neue',Arial,sans-serif" font-size="11.5" fill="#FFFFFF" font-weight="700" text-anchor="middle" letter-spacing="0">2</text></g><text x="54" y="1397" font-family="'Amazon Ember','Segoe UI','Helvetica Neue',Arial,sans-serif" font-size="11" fill="#5A6B7B" font-weight="400" text-anchor="start" letter-spacing="0">A Route 53 Resolver rule, shared by RAM and associated with this VPC, matches the AD zone.</text><g><circle cx="34" cy="1412" r="11" fill="#232F3E" stroke="#FFFFFF" stroke-width="2"/><text x="34" y="1416" font-family="'Amazon Ember','Segoe UI','Helvetica Neue',Arial,sans-serif" font-size="11.5" fill="#FFFFFF" font-weight="700" text-anchor="middle" letter-spacing="0">3</text></g><text x="54" y="1416" font-family="'Amazon Ember','Segoe UI','Helvetica Neue',Arial,sans-serif" font-size="11" fill="#5A6B7B" font-weight="400" text-anchor="start" letter-spacing="0">Traffic crosses the Transit Gateway on the spoke route table.</text><g><circle cx="34" cy="1431" r="11" fill="#232F3E" stroke="#FFFFFF" stroke-width="2"/><text x="34" y="1435" font-family="'Amazon Ember','Segoe UI','Helvetica Neue',Arial,sans-serif" font-size="11.5" fill="#FFFFFF" font-weight="700" text-anchor="middle" letter-spacing="0">4</text></g><text x="54" y="1435" font-family="'Amazon Ember','Segoe UI','Helvetica Neue',Arial,sans-serif" font-size="11" fill="#5A6B7B" font-weight="400" text-anchor="start" letter-spacing="0">The rule&#x27;s outbound endpoint, in the network VPC, forwards the query onward.</text><g><circle cx="34" cy="1450" r="11" fill="#232F3E" stroke="#FFFFFF" stroke-width="2"/><text x="34" y="1454" font-family="'Amazon Ember','Segoe UI','Helvetica Neue',Arial,sans-serif" font-size="11.5" fill="#FFFFFF" font-weight="700" text-anchor="middle" letter-spacing="0">5</text></g><text x="54" y="1454" font-family="'Amazon Ember','Segoe UI','Helvetica Neue',Arial,sans-serif" font-size="11" fill="#5A6B7B" font-weight="400" text-anchor="start" letter-spacing="0">The domain controllers answer. Everything else resolves normally through the Amazon resolver.</text><text x="760" y="1352" font-family="'Amazon Ember','Segoe UI','Helvetica Neue',Arial,sans-serif" font-size="13" fill="#16191F" font-weight="700" text-anchor="start" letter-spacing="0">Cross-account sharing</text><rect x="762" y="1367" width="13" height="13" rx="3" fill="#8C4FFF"/><text x="782" y="1378" font-family="'Amazon Ember','Segoe UI','Helvetica Neue',Arial,sans-serif" font-size="11" fill="#16191F" font-weight="700" text-anchor="start" letter-spacing="0">Transit Gateway</text><text x="952" y="1378" font-family="'Amazon Ember','Segoe UI','Helvetica Neue',Arial,sans-serif" font-size="11" fill="#5A6B7B" font-weight="400" text-anchor="start" letter-spacing="0">AWS RAM · organization share, auto-accepted</text><rect x="762" y="1386" width="13" height="13" rx="3" fill="#8C4FFF"/><text x="782" y="1397" font-family="'Amazon Ember','Segoe UI','Helvetica Neue',Arial,sans-serif" font-size="11" fill="#16191F" font-weight="700" text-anchor="start" letter-spacing="0">Route 53 Resolver rule</text><text x="952" y="1397" font-family="'Amazon Ember','Segoe UI','Helvetica Neue',Arial,sans-serif" font-size="11" fill="#5A6B7B" font-weight="400" text-anchor="start" letter-spacing="0">AWS RAM · associated with the workload VPC</text><rect x="762" y="1405" width="13" height="13" rx="3" fill="#DD344C"/><text x="782" y="1416" font-family="'Amazon Ember','Segoe UI','Helvetica Neue',Arial,sans-serif" font-size="11" fill="#16191F" font-weight="700" text-anchor="start" letter-spacing="0">AWS Managed Microsoft AD</text><text x="952" y="1416" font-family="'Amazon Ember','Segoe UI','Helvetica Neue',Arial,sans-serif" font-size="11" fill="#5A6B7B" font-weight="400" text-anchor="start" letter-spacing="0">Directory Service handshake + accepter</text><text x="782" y="1439" font-family="'Amazon Ember','Segoe UI','Helvetica Neue',Arial,sans-serif" font-size="10.5" fill="#5A6B7B" font-weight="400" text-anchor="start" letter-spacing="0">Directory security group opened to each spoke CIDR on the AD ports only — no RDP, no SSH.</text></svg>